<?xml version="1.0" encoding="utf-8"?>
<!-- Generator: Adobe Illustrator 20.1.0, SVG Export Plug-In . SVG Version: 6.00 Build 0)  -->
<!DOCTYPE svg PUBLIC "-//W3C//DTD SVG 1.1//EN" "http://www.w3.org/Graphics/SVG/1.1/DTD/svg11.dtd">
<svg version="1.1" id="Layer_1" xmlns="http://www.w3.org/2000/svg" xmlns:xlink="http://www.w3.org/1999/xlink" x="0px" y="0px"
	 viewBox="0 0 383 438.4" style="enable-background:new 0 0 383 438.4;" xml:space="preserve">
<style type="text/css">
	.st0{fill:#DF2B26;}
	.st1{fill:#FFFFFF;}
</style>
<path class="st0" d="M99,7.3L0,56l19.6,23.4v222.8L99,222.9L99,7.3z"/>
<path class="st1" d="M190.8,350.5c0,12.2-8.3,17.5-17.5,17.5c-12.2,0-15-7.4-15-15.5v-70h-0.5l-39.2,39.2v40
	c0,22,11.8,41.5,39.1,41.5c12,0,24.2-5,33.2-13.3v10.7h39.7v-118h-39.7V350.5z M327.6,280c-13.5,0-24.6,4.8-33.6,13.5v-11.1h-39.9
	v156H294v-48.7c9,8.3,20.1,13.3,33.6,13.3c32.9,0,53.5-26.4,53.5-61.5C381.1,306.8,360.6,280,327.6,280L327.6,280z M317,369
	c-15.3,0-22.9-12.7-22.9-27.7c0-15,7.4-27.5,22.9-27.5c15.1,0,22,12.6,22,27.5C339,355.9,332,369,317,369z"/>
<path class="st0" d="M255.1,0c-70.6,0-127.9,57.2-127.9,127.9c0,19.5,4.5,37.9,12.3,54.4l1.3,1.4l79-79L195,79.9h108.1V188
	l-24.8-24.8l-79.4,79.5c17,8.4,36.1,13.2,56.3,13.2c70.6,0,127.9-57.2,127.9-127.9C383,57.2,325.7,0,255.1,0z"/>
</svg>
